<svg xmlns="http://www.w3.org/2000/svg" x="0px" y="0px"
width="25" height="25"
viewBox="0 0 172 172"
style=" fill:#000000;"><g fill="none" fill-rule="nonzero" stroke="none" stroke-width="1" stroke-linecap="butt" stroke-linejoin="miter" stroke-miterlimit="10" stroke-dasharray="" stroke-dashoffset="0" font-family="none" font-weight="none" font-size="none" text-anchor="none" style="mix-blend-mode: normal"><path d="M0,172v-172h172v172z" fill="none"></path><g fill="#2ecc71"><path d="M86,21.5c-17.25472,0 -33.19209,4.966 -45.96045,13.4165l5.9209,8.96533c10.94614,-7.2445 24.85077,-11.63184 40.03955,-11.63184c15.32995,0 29.3634,4.47141 40.35449,11.8418l5.98389,-8.92334c-12.83091,-8.60412 -28.92383,-13.66846 -46.33838,-13.66846zM23.85156,68.17432l-10.18311,3.42236c1.99055,5.95104 5.28284,11.30635 9.00732,16.37695l-15.72607,15.72607l7.60059,7.60059l15.49512,-15.49512c5.32607,5.2018 11.43235,9.52368 18.41357,13.01758l-8.14648,19.69433l9.93115,4.11524l7.99951,-19.35841c7.02888,2.40504 14.52885,3.7291 22.38184,4.22022v21.16406h10.75v-21.16406c7.85321,-0.49138 15.35292,-1.81411 22.38183,-4.22022l7.99952,19.35841l9.93115,-4.11524l-8.14648,-19.69433c6.98119,-3.49525 13.0876,-7.81456 18.41357,-13.01758l15.49511,15.49512l7.60059,-7.60059l-15.72608,-15.72607c3.72508,-5.0719 7.01655,-10.44624 9.00733,-16.39795l-10.18311,-3.40137c-7.4388,22.23929 -32.20517,39.32568 -62.14844,39.32568c-29.94447,0 -54.70979,-17.08684 -62.14844,-39.32568z"></path></g></g></svg>