<svg xmlns="http://www.w3.org/2000/svg" viewBox="0 0 1440 320"><path fill="rgb(1, 143, 119)" fill-opacity="1" d="M0,256L26.7,261.3C53.3,267,107,277,160,240C213.3,203,267,117,320,74.7C373.3,32,427,32,480,48C533.3,64,587,96,640,117.3C693.3,139,747,149,800,160C853.3,171,907,181,960,154.7C1013.3,128,1067,64,1120,64C1173.3,64,1227,128,1280,160C1333.3,192,1387,192,1413,192L1440,192L1440,0L1413.3,0C1386.7,0,1333,0,1280,0C1226.7,0,1173,0,1120,0C1066.7,0,1013,0,960,0C906.7,0,853,0,800,0C746.7,0,693,0,640,0C586.7,0,533,0,480,0C426.7,0,373,0,320,0C266.7,0,213,0,160,0C106.7,0,53,0,27,0L0,0Z"></path></svg>