<svg height="100%" width="100%" id="bg-svg" viewBox="0 0 1440 700" xmlns="http://www.w3.org/2000/svg" class="transition duration-300 ease-in-out delay-150"><defs><linearGradient id="gradient"><stop offset="5%" stop-color="#33333388"></stop><stop offset="95%" stop-color="#32ded488"></stop></linearGradient></defs><path d="M 0,700 C 0,700 0,233 0,233 C 79.14615384615385,196.9025641025641 158.2923076923077,160.80512820512823 233,164 C 307.7076923076923,167.19487179487177 377.9769230769231,209.68205128205125 457,242 C 536.0230769230769,274.31794871794875 623.8,296.4666666666667 701,311 C 778.2,325.5333333333333 844.8230769230771,332.451282051282 918,309 C 991.1769230769229,285.548717948718 1070.9076923076923,231.72820512820513 1159,214 C 1247.0923076923077,196.27179487179487 1343.5461538461539,214.63589743589745 1440,233 C 1440,233 1440,700 1440,700 Z" stroke="none" stroke-width="0" fill="url(#gradient)" class="transition-all duration-300 ease-in-out delay-150"></path><defs><linearGradient id="gradient"><stop offset="5%" stop-color="#333333ff"></stop><stop offset="95%" stop-color="#32ded4ff"></stop></linearGradient></defs><path d="M 0,700 C 0,700 0,466 0,466 C 92.83846153846156,445.7769230769231 185.67692307692312,425.55384615384617 256,435 C 326.3230769230769,444.44615384615383 374.13076923076926,483.5615384615385 454,501 C 533.8692307692307,518.4384615384615 645.7999999999998,514.2 730,489 C 814.2000000000002,463.7999999999999 870.669230769231,417.63846153846146 939,401 C 1007.330769230769,384.36153846153854 1087.5230769230768,397.24615384615385 1173,413 C 1258.4769230769232,428.75384615384615 1349.2384615384617,447.37692307692305 1440,466 C 1440,466 1440,700 1440,700 Z" stroke="none" stroke-width="0" fill="url(#gradient)" class="transition-all duration-300 ease-in-out delay-150"></path></svg>